<?xml version="1.0" encoding="UTF-8" standalone="no"?>
<!-- Created with Inkscape (http://www.inkscape.org/) -->

<svg
   xmlns:dc="http://purl.org/dc/elements/1.1/"
   xmlns:cc="http://creativecommons.org/ns#"
   xmlns:rdf="http://www.w3.org/1999/02/22-rdf-syntax-ns#"
   xmlns:svg="http://www.w3.org/2000/svg"
   xmlns="http://www.w3.org/2000/svg"
   xmlns:sodipodi="http://sodipodi.sourceforge.net/DTD/sodipodi-0.dtd"
   xmlns:inkscape="http://www.inkscape.org/namespaces/inkscape"
   width="210mm"
   height="297mm"
   viewBox="0 0 210 297"
   version="1.1"
   id="svg56"
   inkscape:version="0.92.3 (2405546, 2018-03-11)"
   sodipodi:docname="monochrome.svg">
  <defs
     id="defs50" />
  <sodipodi:namedview
     id="base"
     pagecolor="#ffffff"
     bordercolor="#666666"
     borderopacity="1.0"
     inkscape:pageopacity="0.0"
     inkscape:pageshadow="2"
     inkscape:zoom="1.0982252"
     inkscape:cx="408.38665"
     inkscape:cy="531.14752"
     inkscape:document-units="mm"
     inkscape:current-layer="layer1"
     showgrid="false"
     inkscape:window-width="1366"
     inkscape:window-height="713"
     inkscape:window-x="0"
     inkscape:window-y="27"
     inkscape:window-maximized="1" />
  <metadata
     id="metadata53">
    <rdf:RDF>
      <cc:Work
         rdf:about="">
        <dc:format>image/svg+xml</dc:format>
        <dc:type
           rdf:resource="http://purl.org/dc/dcmitype/StillImage" />
        <dc:title></dc:title>
      </cc:Work>
    </rdf:RDF>
  </metadata>
  <g
     inkscape:label="Layer 1"
     inkscape:groupmode="layer"
     id="layer1">
    <g
       transform="matrix(0.17723974,0,0,0.17903094,64.137864,96.521208)"
       id="g876"
       style="overflow:visible;fill:#808080"
       inkscape:export-xdpi="72.675804"
       inkscape:export-ydpi="72.675804">
      <g
         id="g3"
         transform="translate(-61.68556,-312.8684)"
         style="fill:#808080">
        <path
           inkscape:connector-curvature="0"
           style="clip-rule:evenodd;fill:#808080;fill-opacity:1;fill-rule:evenodd"
           d="m 226.78568,742.76757 -54.22512,18.23778 c -35.06323,12.15852 -64.97567,-16.35908 -32.72249,-28.05407 l 26.17539,-9.34411 -98.632455,-31.33052 C 36.994899,702.56663 8.4787729,724.53999 10.3531,755.3983 c 1.869981,31.3204 73.38699,38.80466 128.55071,47.68813 51.4165,8.4113 98.16172,3.73706 140.70488,-11.2242 l 42.21589,-13.96898 z"
           id="path4622" />
        <path
           inkscape:connector-curvature="0"
           style="clip-rule:evenodd;fill:#808080;fill-opacity:1;fill-rule:evenodd"
           d="m 395.53446,863.39514 100.50242,-35.0676 -101.43667,-32.25463 v 64.98007 z"
           id="path9" />
        <path
           inkscape:connector-curvature="0"
           id="path887"
           d="m 662.91715,769.42531 1.8685,-0.47074 c 43.94098,-15.42334 62.63936,-36.93754 57.96798,-57.03368 -7.4799,-33.65968 -61.23717,-51.89741 -143.97839,-57.97669 -59.36432,-4.20494 -117.79432,8.88207 -174.8237,28.51615 l -9.3499,3.27646 102.37241,31.79113 59.83219,-20.10628 c 62.6393,-11.68485 87.8862,8.88347 27.58184,28.05407 l -29.91827,10.2798 z"
           style="clip-rule:evenodd;fill:#808080;fill-opacity:1;fill-rule:evenodd" />
        <path
           sodipodi:nodetypes="ccccccccccccccccccccc"
           inkscape:connector-curvature="0"
           d="m 496.03688,828.32754 166.88027,-58.90223 -108.4502,-33.66978 -159.86674,54.70022 v 5.61716 z m -174.2123,-50.43429 -42.21446,-52.88976 m 114.99009,27.59201 v -66.85869 m 0,66.85869 102.37241,-35.06756 -102.37241,-31.79113 -114.99009,39.26668 -52.823,17.76557 95.03746,35.12419 M 166.01492,723.60717 328.24235,665.51841 234.26272,636.17869 67.38246,692.27665 Z"
           id="path13"
           style="clip-rule:evenodd;fill:#808080;fill-opacity:1;fill-rule:evenodd" />
        <path
           style="clip-rule:evenodd;fill:#808080;fill-opacity:1;fill-rule:evenodd;stroke-width:0.6732589"
           d="m 534.76562,357.23242 -62.33007,25.70117 62.95507,19.85352 67.32618,-23.72852 z"
           transform="matrix(1.4927992,0,0,1.4778637,-470.98937,70.254818)"
           id="path4624"
           inkscape:connector-curvature="0"
           sodipodi:nodetypes="ccccc" />
      </g>
    </g>
    <g
       inkscape:transform-center-y="-14.019415"
       inkscape:transform-center-x="2.9585239"
       transform="matrix(4.4647631,1.4653503,0,4.5098846,-0.81221864,-565.72735)"
       id="text897"
       style="font-style:normal;font-weight:normal;font-size:28.96319008px;line-height:1.25;font-family:sans-serif;letter-spacing:0px;word-spacing:0px;fill:#000000;fill-opacity:1;stroke:none;stroke-width:0.12368242;stroke-miterlimit:4;stroke-dasharray:none;stroke-opacity:1"
       aria-label="V"
       inkscape:export-xdpi="72.675804"
       inkscape:export-ydpi="72.675804">
      <path
         inkscape:connector-curvature="0"
         id="path899"
         style="font-style:normal;font-variant:normal;font-weight:normal;font-stretch:normal;font-family:'FONTSPRING DEMO - Zrnic Sb';-inkscape-font-specification:'FONTSPRING DEMO - Zrnic Sb';fill:#000000;stroke:none;stroke-width:0.12368242;stroke-miterlimit:4;stroke-dasharray:none;stroke-opacity:1"
         d="m 28.545134,139.37432 -3.27284,17.92822 -2.867356,-17.92822 H 18.69765 l 3.823141,20.3032 h 5.242337 l 4.141736,-20.3032 z" />
    </g>
  </g>
</svg>
