<?xml version="1.0" encoding="UTF-8" standalone="no"?>
<!-- Created with Inkscape (http://www.inkscape.org/) -->

<svg
   xmlns:dc="http://purl.org/dc/elements/1.1/"
   xmlns:cc="http://creativecommons.org/ns#"
   xmlns:rdf="http://www.w3.org/1999/02/22-rdf-syntax-ns#"
   xmlns:svg="http://www.w3.org/2000/svg"
   xmlns="http://www.w3.org/2000/svg"
   xmlns:sodipodi="http://sodipodi.sourceforge.net/DTD/sodipodi-0.dtd"
   xmlns:inkscape="http://www.inkscape.org/namespaces/inkscape"
   version="1.1"
   id="svg2"
   xml:space="preserve"
   width="300"
   height="174.66667"
   viewBox="0 0 300 174.66667"
   sodipodi:docname="todos-logos.svg"
   inkscape:version="0.92.3 (2405546, 2018-03-11)"><metadata
     id="metadata8"><rdf:RDF><cc:Work
         rdf:about=""><dc:format>image/svg+xml</dc:format><dc:type
           rdf:resource="http://purl.org/dc/dcmitype/StillImage" /><dc:title /></cc:Work></rdf:RDF></metadata><defs
     id="defs6"><clipPath
       clipPathUnits="userSpaceOnUse"
       id="clipPath22"><path
         d="M 0,131 H 225 V 0 H 0 Z"
         id="path20"
         inkscape:connector-curvature="0" /></clipPath></defs><sodipodi:namedview
     pagecolor="#333333"
     bordercolor="#666666"
     borderopacity="1"
     objecttolerance="10"
     gridtolerance="10"
     guidetolerance="10"
     inkscape:pageopacity="0"
     inkscape:pageshadow="2"
     inkscape:window-width="1366"
     inkscape:window-height="713"
     id="namedview4"
     showgrid="false"
     inkscape:zoom="6.9904492"
     inkscape:cx="248.46905"
     inkscape:cy="99.991354"
     inkscape:window-x="0"
     inkscape:window-y="27"
     inkscape:window-maximized="1"
     inkscape:current-layer="g1086"
     inkscape:measure-start="0,0"
     inkscape:measure-end="0,0"
     showguides="true" /><g
     id="g10"
     inkscape:groupmode="layer"
     inkscape:label="Perfil Facebook copia"
     transform="matrix(1.3333333,0,0,-1.3333333,0,174.66667)"><g
       id="g16"
       transform="translate(19.519937,-24.756993)"><g
         id="g18"
         clip-path="url(#clipPath22)"><g
           id="g1086"
           inkscape:export-xdpi="664.71997"
           inkscape:export-ydpi="664.71997"><g
   id="g1654"><circle
   style="opacity:1;vector-effect:none;fill:#000000;fill-opacity:1;stroke:none;stroke-width:3.40125012;stroke-linecap:square;stroke-linejoin:miter;stroke-miterlimit:4;stroke-dasharray:none;stroke-dashoffset:0;stroke-opacity:1;paint-order:stroke fill markers"
   id="path1035"
   cx="30.897886"
   cy="-99.0317"
   r="27.728874"
   transform="scale(1,-1)" /><g
   id="g1043"
   transform="matrix(0.47956605,0,0,0.47956605,-26.027578,66.335685)"><g
     transform="translate(147.8682,68.0645)"
     id="g192"><path
       inkscape:connector-curvature="0"
       id="path194"
       style="fill:#919190;fill-opacity:1;fill-rule:nonzero;stroke:none"
       d="m 0,0 h -39.479 l -2.474,-11.3 h 39.478 z" /></g><g
     transform="translate(152.1592,87.6606)"
     id="g196"><path
       inkscape:connector-curvature="0"
       id="path198"
       style="fill:#919190;fill-opacity:1;fill-rule:nonzero;stroke:none"
       d="m 0,0 h -39.48 l -2.475,-11.302 h 39.48 z" /></g><g
     transform="translate(156.4277,107.165)"
     id="g200"><path
       inkscape:connector-curvature="0"
       id="path202"
       style="fill:#ef9213;fill-opacity:1;fill-rule:nonzero;stroke:none"
       d="m 0,0 h -74.569 l -2.475,-11.302 h 10.889 l -8.855,-40.456 h 13.916 l 8.856,40.456 h 49.763 z" /></g></g><text
   xml:space="preserve"
   style="font-style:normal;font-variant:normal;font-weight:bold;font-stretch:normal;font-size:4.93854427px;line-height:1.25;font-family:Nulshock;-inkscape-font-specification:'Nulshock, Bold';font-variant-ligatures:normal;font-variant-caps:normal;font-variant-numeric:normal;font-feature-settings:normal;text-align:start;letter-spacing:0px;word-spacing:0px;writing-mode:lr-tb;text-anchor:start;fill:#fbdb13;fill-opacity:0.98039216;stroke:none;stroke-width:0.1234636"
   x="30.713356"
   y="-88.135696"
   id="text1071"
   transform="scale(1,-1)"><tspan
     sodipodi:role="line"
     id="tspan1069"
     x="30.713356"
     y="-88.135696"
     style="font-style:normal;font-variant:normal;font-weight:bold;font-stretch:normal;font-size:4.93863297px;font-family:Nulshock;-inkscape-font-specification:'Nulshock, Bold';font-variant-ligatures:normal;font-variant-caps:normal;font-variant-numeric:normal;font-feature-settings:normal;text-align:center;writing-mode:lr-tb;text-anchor:middle;fill:#fbdb13;fill-opacity:0.98039216;stroke-width:0.1234636">TECNOLOGIA en</tspan><tspan
     sodipodi:role="line"
     x="30.713356"
     y="-81.962402"
     style="font-style:normal;font-variant:normal;font-weight:bold;font-stretch:normal;font-size:4.93863297px;font-family:Nulshock;-inkscape-font-specification:'Nulshock, Bold';font-variant-ligatures:normal;font-variant-caps:normal;font-variant-numeric:normal;font-feature-settings:normal;text-align:center;writing-mode:lr-tb;text-anchor:middle;fill:#fbdb13;fill-opacity:0.98039216;stroke-width:0.1234636"
     id="tspan1073"
     dy="-1.9414639">ESTRUCTURAS</tspan></text>

</g>
<g
   id="g1641"
   inkscape:export-xdpi="664.71997"
   inkscape:export-ydpi="664.71997"><circle
     transform="scale(1,-1)"
     r="27.728874"
     cy="-100.22195"
     cx="96.718163"
     id="circle830"
     style="opacity:1;vector-effect:none;fill:#ffffff;fill-opacity:1;stroke:none;stroke-width:3.40125012;stroke-linecap:square;stroke-linejoin:miter;stroke-miterlimit:4;stroke-dasharray:none;stroke-dashoffset:0;stroke-opacity:1;paint-order:stroke fill markers" /><g
     transform="matrix(1.1477548,0,0,1.1477548,-14.546106,-12.909023)"
     id="g1597"><g
       transform="matrix(0.25556624,0,0,-0.25556624,61.443673,151.55482)"
       aria-label="VentilaStation 2"
       style="font-style:normal;font-weight:normal;font-size:28.96319008px;line-height:1.25;font-family:sans-serif;letter-spacing:0px;word-spacing:0px;fill:#000000;fill-opacity:1;stroke:none;stroke-width:0.72407973"
       id="text880"><path
         inkscape:connector-curvature="0"
         d="m 67.742703,239.54934 -3.27284,17.92822 -2.867356,-17.92822 h -3.707288 l 3.823141,20.3032 h 5.242337 l 4.141736,-20.3032 z"
         style="font-style:normal;font-variant:normal;font-weight:normal;font-stretch:normal;font-family:'FONTSPRING DEMO - Zrnic Sb';-inkscape-font-specification:'FONTSPRING DEMO - Zrnic Sb';stroke-width:0.72407973"
         id="path824" /><path
         inkscape:connector-curvature="0"
         d="m 79.599057,253.27789 c 3.562472,0 4.460331,-1.3323 4.460331,-3.79417 v -1.91157 c 0,-2.46187 -0.897859,-3.79418 -4.460331,-3.79418 h -3.388694 c -3.562472,0 -4.489294,1.33231 -4.489294,4.92374 v 6.22709 c 0,3.59143 0.926822,4.92374 4.489294,4.92374 h 6.661534 v -2.08535 h -5.35819 c -1.853644,0 -2.172239,-0.3186 -2.172239,-2.69358 v -6.51672 c 0,-2.37498 0.318595,-2.66461 2.172239,-2.66461 h 0.782006 c 1.824681,0 2.143276,0.28963 2.143276,1.91157 v 1.6509 c 0,1.4192 -0.318595,1.79572 -2.143276,1.79572 h -1.506086 v 2.02742 z"
         style="font-style:normal;font-variant:normal;font-weight:normal;font-stretch:normal;font-family:'FONTSPRING DEMO - Zrnic Sb';-inkscape-font-specification:'FONTSPRING DEMO - Zrnic Sb';stroke-width:0.72407973"
         id="path826" /><path
         inkscape:connector-curvature="0"
         d="m 98.863651,259.85254 v -11.15083 c 0,-3.59143 -0.926822,-4.92374 -4.489295,-4.92374 h -8.109693 v 16.07457 h 3.620399 v -13.96026 h 3.185951 c 1.824681,0 2.172239,0.34756 2.172239,2.43291 v 11.52735 z"
         style="font-style:normal;font-variant:normal;font-weight:normal;font-stretch:normal;font-family:'FONTSPRING DEMO - Zrnic Sb';-inkscape-font-specification:'FONTSPRING DEMO - Zrnic Sb';stroke-width:0.72407973"
         id="path828" /><path
         inkscape:connector-curvature="0"
         d="m 108.80526,243.77797 h -3.64936 v -4.22863 h -3.6204 v 16.42213 c 0,2.2012 0.92683,3.88107 3.76522,3.88107 h 2.66461 v -2.08535 h -1.18749 c -1.30334,0 -1.62194,-0.23171 -1.62194,-2.05639 v -9.81852 h 3.64936 z"
         style="font-style:normal;font-variant:normal;font-weight:normal;font-stretch:normal;font-family:'FONTSPRING DEMO - Zrnic Sb';-inkscape-font-specification:'FONTSPRING DEMO - Zrnic Sb';stroke-width:0.72407973"
         id="path830" /><path
         inkscape:connector-curvature="0"
         d="m 114.26754,243.77797 h -3.62039 v 16.07457 h 3.62039 z m 0,-4.83685 h -3.62039 v 2.78046 h 3.62039 z"
         style="font-style:normal;font-variant:normal;font-weight:normal;font-stretch:normal;font-family:'FONTSPRING DEMO - Zrnic Sb';-inkscape-font-specification:'FONTSPRING DEMO - Zrnic Sb';stroke-width:0.72407973"
         id="path832" /><path
         inkscape:connector-curvature="0"
         d="m 120.82816,238.97008 h -3.6204 v 20.88246 h 3.6204 z"
         style="font-style:normal;font-variant:normal;font-weight:normal;font-stretch:normal;font-family:'FONTSPRING DEMO - Zrnic Sb';-inkscape-font-specification:'FONTSPRING DEMO - Zrnic Sb';stroke-width:0.72407973"
         id="path834" /><path
         inkscape:connector-curvature="0"
         d="m 127.71009,250.06298 c -3.56248,0 -4.4893,1.33231 -4.4893,3.79418 v 2.2012 c 0,2.46187 0.92682,3.79418 4.4893,3.79418 h 7.44354 v -11.15083 c 0,-3.59143 -0.92683,-4.92374 -4.4893,-4.92374 h -5.32922 v 2.11431 h 4.02588 c 1.85364,0 2.17224,0.28963 2.17224,2.66461 v 9.2103 h -2.5198 c -1.85364,0 -2.17224,-0.3186 -2.17224,-1.91157 v -1.94053 c 0,-1.4192 0.3186,-1.82469 2.17224,-1.82469 h 1.07164 v -2.02742 z"
         style="font-style:normal;font-variant:normal;font-weight:normal;font-stretch:normal;font-family:'FONTSPRING DEMO - Zrnic Sb';-inkscape-font-specification:'FONTSPRING DEMO - Zrnic Sb';stroke-width:0.72407973"
         id="path836" /><path
         inkscape:connector-curvature="0"
         d="m 149.14963,253.59649 c 0,-4.74996 -1.39023,-5.76367 -4.60515,-5.76367 h -1.82468 c -1.9695,0 -2.14327,-0.55031 -2.14327,-3.01218 0,-2.72254 0.72408,-3.15698 2.02742,-3.15698 h 4.89478 v -2.11432 h -5.79264 c -3.35973,0 -4.57618,2.14328 -4.57618,5.76368 0,4.25759 1.04267,5.73471 4.02588,5.73471 h 2.02742 c 2.23017,0 2.5198,0.46341 2.5198,3.09906 0,3.24388 -0.78201,3.6204 -2.11431,3.6204 h -5.93746 v 2.08535 h 6.66154 c 3.50454,0 4.83685,-1.9695 4.83685,-6.25605 z"
         style="font-style:normal;font-variant:normal;font-weight:normal;font-stretch:normal;font-family:'FONTSPRING DEMO - Zrnic Sb';-inkscape-font-specification:'FONTSPRING DEMO - Zrnic Sb';stroke-width:0.72407973"
         id="path838" /><path
         inkscape:connector-curvature="0"
         d="m 158.52918,243.77797 h -3.64936 v -4.22863 h -3.6204 v 16.42213 c 0,2.2012 0.92683,3.88107 3.76522,3.88107 h 2.66461 v -2.08535 h -1.18749 c -1.30334,0 -1.62194,-0.23171 -1.62194,-2.05639 v -9.81852 h 3.64936 z"
         style="font-style:normal;font-variant:normal;font-weight:normal;font-stretch:normal;font-family:'FONTSPRING DEMO - Zrnic Sb';-inkscape-font-specification:'FONTSPRING DEMO - Zrnic Sb';stroke-width:0.72407973"
         id="path840" /><path
         inkscape:connector-curvature="0"
         d="m 163.8575,250.06298 c -3.56247,0 -4.48929,1.33231 -4.48929,3.79418 v 2.2012 c 0,2.46187 0.92682,3.79418 4.48929,3.79418 h 7.44354 v -11.15083 c 0,-3.59143 -0.92682,-4.92374 -4.48929,-4.92374 h -5.32923 v 2.11431 h 4.02588 c 1.85365,0 2.17224,0.28963 2.17224,2.66461 v 9.2103 h -2.51979 c -1.85365,0 -2.17224,-0.3186 -2.17224,-1.91157 v -1.94053 c 0,-1.4192 0.31859,-1.82469 2.17224,-1.82469 h 1.07163 v -2.02742 z"
         style="font-style:normal;font-variant:normal;font-weight:normal;font-stretch:normal;font-family:'FONTSPRING DEMO - Zrnic Sb';-inkscape-font-specification:'FONTSPRING DEMO - Zrnic Sb';stroke-width:0.72407973"
         id="path842" /><path
         inkscape:connector-curvature="0"
         d="m 181.21324,243.77797 h -3.64936 v -4.22863 h -3.6204 v 16.42213 c 0,2.2012 0.92682,3.88107 3.76522,3.88107 h 2.66461 v -2.08535 h -1.18749 c -1.30334,0 -1.62194,-0.23171 -1.62194,-2.05639 v -9.81852 h 3.64936 z"
         style="font-style:normal;font-variant:normal;font-weight:normal;font-stretch:normal;font-family:'FONTSPRING DEMO - Zrnic Sb';-inkscape-font-specification:'FONTSPRING DEMO - Zrnic Sb';stroke-width:0.72407973"
         id="path844" /><path
         inkscape:connector-curvature="0"
         d="m 186.67552,243.77797 h -3.6204 v 16.07457 h 3.6204 z m 0,-4.83685 h -3.6204 v 2.78046 h 3.6204 z"
         style="font-style:normal;font-variant:normal;font-weight:normal;font-stretch:normal;font-family:'FONTSPRING DEMO - Zrnic Sb';-inkscape-font-specification:'FONTSPRING DEMO - Zrnic Sb';stroke-width:0.72407973"
         id="path846" /><path
         inkscape:connector-curvature="0"
         d="m 193.84436,243.77797 c -3.56248,0 -4.46033,1.33231 -4.46033,4.92374 v 6.22709 c 0,3.59143 0.89785,4.92374 4.46033,4.92374 h 3.99692 c 3.56247,0 4.48929,-1.33231 4.48929,-4.92374 v -6.22709 c 0,-3.59143 -0.92682,-4.92374 -4.48929,-4.92374 z m 2.69357,2.11431 c 1.85365,0 2.17224,0.28963 2.17224,2.66461 v 6.51672 c 0,2.37498 -0.31859,2.69358 -2.17224,2.69358 h -1.39023 c -1.82468,0 -2.14328,-0.3186 -2.14328,-2.69358 v -6.51672 c 0,-2.37498 0.3186,-2.66461 2.14328,-2.66461 z"
         style="font-style:normal;font-variant:normal;font-weight:normal;font-stretch:normal;font-family:'FONTSPRING DEMO - Zrnic Sb';-inkscape-font-specification:'FONTSPRING DEMO - Zrnic Sb';stroke-width:0.72407973"
         id="path848" /><path
         inkscape:connector-curvature="0"
         d="m 217.60142,259.85254 v -11.15083 c 0,-3.59143 -0.92682,-4.92374 -4.48929,-4.92374 h -8.10969 v 16.07457 h 3.62039 v -13.96026 h 3.18595 c 1.82469,0 2.17224,0.34756 2.17224,2.43291 v 11.52735 z"
         style="font-style:normal;font-variant:normal;font-weight:normal;font-stretch:normal;font-family:'FONTSPRING DEMO - Zrnic Sb';-inkscape-font-specification:'FONTSPRING DEMO - Zrnic Sb';stroke-width:0.72407973"
         id="path850" /></g><g
       id="g4612"
       transform="matrix(0.94084616,0,0,-0.95035449,2.8238443,230.08286)"><g
         transform="matrix(0.04814442,0,0,0.04814442,85.030235,118.23788)"
         id="g876"
         style="overflow:visible"><g
           id="g3"
           transform="translate(-61.68556,-312.8684)"><path
             inkscape:connector-curvature="0"
             style="clip-rule:evenodd;fill:#f3c202;fill-opacity:1;fill-rule:evenodd"
             d="m 226.78568,742.76757 -54.22512,18.23778 c -35.06323,12.15852 -64.97567,-16.35908 -32.72249,-28.05407 l 26.17539,-9.34411 -98.632455,-31.33052 C 36.994899,702.56663 8.4787729,724.53999 10.3531,755.3983 c 1.869981,31.3204 73.38699,38.80466 128.55071,47.68813 51.4165,8.4113 98.16172,3.73706 140.70488,-11.2242 l 42.21589,-13.96898 z"
             id="path4622" /><path
             inkscape:connector-curvature="0"
             style="clip-rule:evenodd;fill:#f3c202;fill-opacity:1;fill-rule:evenodd"
             d="m 395.53446,863.39514 100.50242,-35.0676 -101.43667,-32.25463 v 64.98007 z"
             id="path9" /><path
             inkscape:connector-curvature="0"
             id="path887"
             d="m 662.91715,769.42531 1.8685,-0.47074 c 43.94098,-15.42334 62.63936,-36.93754 57.96798,-57.03368 -7.4799,-33.65968 -61.23717,-51.89741 -143.97839,-57.97669 -59.36432,-4.20494 -117.79432,8.88207 -174.8237,28.51615 l -9.3499,3.27646 102.37241,31.79113 59.83219,-20.10628 c 62.6393,-11.68485 87.8862,8.88347 27.58184,28.05407 l -29.91827,10.2798 z"
             style="clip-rule:evenodd;fill:#326db3;fill-opacity:1;fill-rule:evenodd" /><path
             sodipodi:nodetypes="ccccccccccccccccccccc"
             inkscape:connector-curvature="0"
             d="m 496.03688,828.32754 166.88027,-58.90223 -108.4502,-33.66978 -159.86674,54.70022 v 5.61716 z m -174.2123,-50.43429 -42.21446,-52.88976 m 114.99009,27.59201 v -66.85869 m 0,66.85869 102.37241,-35.06756 -102.37241,-31.79113 -114.99009,39.26668 -52.823,17.76557 95.03746,35.12419 M 166.01492,723.60717 328.24235,665.51841 234.26272,636.17869 67.38246,692.27665 Z"
             id="path13"
             style="clip-rule:evenodd;fill:#00aa9e;fill-opacity:1;fill-rule:evenodd" /><path
             style="clip-rule:evenodd;fill:#326db3;fill-opacity:1;fill-rule:evenodd;stroke-width:0.6732589"
             d="m 534.76562,357.23242 -62.33007,25.70117 62.95507,19.85352 67.32618,-23.72852 z"
             transform="matrix(1.4927992,0,0,1.4778637,-470.98937,70.254818)"
             id="path4624"
             inkscape:connector-curvature="0"
             sodipodi:nodetypes="ccccc" /></g></g><g
         inkscape:transform-center-y="-14.019415"
         inkscape:transform-center-x="2.9585239"
         transform="matrix(1.2127835,0.39405726,0,1.2127835,67.387554,-59.851853)"
         id="text897"
         style="font-style:normal;font-weight:normal;font-size:28.96319008px;line-height:1.25;font-family:sans-serif;letter-spacing:0px;word-spacing:0px;fill:#ff0000;fill-opacity:1;stroke:none;stroke-width:0.12368242;stroke-miterlimit:4;stroke-dasharray:none;stroke-opacity:1"
         aria-label="V"><path
           inkscape:connector-curvature="0"
           id="path899"
           style="font-style:normal;font-variant:normal;font-weight:normal;font-stretch:normal;font-family:'FONTSPRING DEMO - Zrnic Sb';-inkscape-font-specification:'FONTSPRING DEMO - Zrnic Sb';fill:#ff0000;stroke:none;stroke-width:0.12368242;stroke-miterlimit:4;stroke-dasharray:none;stroke-opacity:1"
           d="m 28.545134,139.37432 -3.27284,17.92822 -2.867356,-17.92822 H 18.69765 l 3.823141,20.3032 h 5.242337 l 4.141736,-20.3032 z" /></g></g></g></g><g
   id="g1612"
   inkscape:export-xdpi="664.72229"
   inkscape:export-ydpi="664.72229"
   inkscape:export-filename="/home/alecu/club-de-jaqueo/ventilastation/vyruss/images/planetas/imagenes/sves.png"><circle
     transform="scale(1,-1)"
     r="27.728874"
     cy="-100.69804"
     cx="160.15796"
     id="circle1599"
     style="opacity:1;vector-effect:none;fill:#000000;fill-opacity:1;stroke:none;stroke-width:3.40125012;stroke-linecap:square;stroke-linejoin:miter;stroke-miterlimit:4;stroke-dasharray:none;stroke-dashoffset:0;stroke-opacity:1;paint-order:stroke fill markers" /><g
     transform="matrix(0.23894739,0,0,-0.23894739,126.69352,141.2701)"
     id="text5248"
     style="font-style:normal;font-weight:normal;font-size:48.82201004px;line-height:1.25;font-family:sans-serif;letter-spacing:0px;word-spacing:0px;fill:#e3000b;fill-opacity:1;stroke:none;stroke-width:1.22055018"
     aria-label="SUPER VENTILAGON"><path
       style="font-style:normal;font-variant:normal;font-weight:normal;font-stretch:normal;font-family:snes;-inkscape-font-specification:snes;fill:#e3000b;fill-opacity:1;stroke-width:1.22055018"
       d="m 28.610908,181.02557 v 15.58396 H 251.25778 v -15.58396 z"
       id="path1623" /><path
       inkscape:connector-curvature="0"
       d="m 230.51169,177.16533 6.19811,-34.18494 h 4.12413 q 1.78791,18.49896 1.85943,26.10356 0.23839,-6.72256 3.71886,-26.10356 h 4.12413 l -6.19811,34.18494 h -4.12412 q -1.76408,-18.42745 -1.8356,-25.48376 -0.23839,5.91204 -3.71886,25.48376 z m -11.15659,-4.83929 q 0,0.40526 0.28607,0.71516 0.28607,0.30991 0.71516,0.30991 h 2.19318 q 1.16811,0 1.45417,-1.19194 l 4.36252,-24.19646 v -0.14303 q 0,-0.4291 -0.28607,-0.71517 -0.28607,-0.26223 -0.71517,-0.26223 h -2.21701 q -0.50062,0 -0.92972,0.33375 -0.40526,0.3099 -0.50061,0.78668 l -4.36252,24.24413 z m 10.22688,-29.34565 q 1.23962,0 2.12166,0.90587 0.90588,0.90588 0.90588,2.19318 0,0.35758 -0.0477,0.54829 l -4.91081,27.46238 q -0.26223,1.31114 -1.33498,2.19318 -1.07275,0.88204 -2.43156,0.88204 H 218.187 q -1.26346,0 -2.1455,-0.90588 -0.88204,-0.90588 -0.88204,-2.16934 v -0.59597 l 4.91081,-27.4147 q 0.26223,-1.33498 1.31114,-2.21702 1.07275,-0.88203 2.40772,-0.88203 z m -17.28318,31.10972 q -0.26223,1.31114 -1.33498,2.19318 -1.07275,0.88204 -2.43157,0.88204 h -5.69749 q -1.26346,0 -2.14549,-0.90588 -0.88204,-0.90588 -0.88204,-2.16934 v -0.59597 l 4.9108,-27.4147 q 0.26223,-1.33498 1.31114,-2.21702 1.07275,-0.88203 2.40773,-0.88203 h 5.79284 q 1.23963,0 2.12166,0.90587 0.90588,0.90588 0.90588,2.19318 0,0.35758 -0.0477,0.54829 l -1.52568,8.53432 h -3.95726 l 1.2873,-7.19934 v -0.14303 q 0,-0.4291 -0.28606,-0.71517 -0.28607,-0.26223 -0.71517,-0.26223 h -2.21702 q -0.50061,0 -0.92971,0.33375 -0.40526,0.3099 -0.50062,0.78668 l -4.36251,24.24413 v 0.1192 q 0,0.40526 0.28606,0.71516 0.28607,0.30991 0.71517,0.30991 h 2.19318 q 1.1681,0 1.45417,-1.19194 l 1.95479,-10.46527 h -2.2647 l 0.69133,-3.81422 h 6.22195 z m -17.80764,-6.41265 1.50185,-15.13769 -5.22071,15.13769 z m -5.05384,3.8619 -1.93094,5.62597 h -4.36252 l 12.87299,-34.18494 h 4.10029 l -2.66996,34.18494 h -3.88573 l 0.54829,-5.62597 z m -12.37238,1.81175 h 5.05384 l -0.69132,3.81422 h -9.27332 l 6.1981,-34.18494 h 4.14797 z m -7.74763,3.81422 h -4.12413 l 6.22195,-34.18494 h 4.10028 z m -0.739,-30.32305 h -2.83682 l -5.48294,30.32305 h -4.17181 l 5.53062,-30.32305 h -2.93218 l 0.69133,-3.86189 h 9.94081 z m -31.32428,30.32305 6.19811,-34.18494 h 4.12413 q 1.78791,18.49896 1.85943,26.10356 0.23839,-6.72256 3.71886,-26.10356 h 4.12413 l -6.19811,34.18494 h -4.12412 q -1.76408,-18.42745 -1.8356,-25.48376 -0.23839,5.91204 -3.71886,25.48376 z m -5.91204,-34.18494 h 9.27332 l -0.66749,3.86189 h -5.1492 l -1.93094,10.79901 h 5.12535 l -0.71516,3.81422 h -5.10152 l -2.12166,11.8956 h 5.05384 l -0.69133,3.81422 h -9.27332 z m -15.16153,24.62555 8.48664,-24.62555 h 4.36252 l -12.87299,34.18494 h -4.10029 l 2.66995,-34.18494 h 3.88574 z m -18.570475,-9.60706 q 0.524456,0 0.929716,-0.35759 0.405261,-0.33374 0.476778,-0.83436 l 1.621041,-8.84422 v -0.14303 q 0,-0.4291 -0.28606,-0.71517 -0.30991,-0.26223 -0.739009,-0.26223 h -3.289765 l -2.026304,11.1566 z m 0.238389,5.05384 q 0,-0.40526 -0.286066,-0.69133 -0.286067,-0.28607 -0.691328,-0.28607 h -3.313603 l -2.669954,15.09001 h -4.171802 l 6.12659,-34.18494 h 9.177969 q 1.23962,0 2.1455,0.90587 0.90587,0.88204 0.95355,2.16934 0,0.1192 -0.0954,0.57213 l -1.90711,10.77517 q -0.45293,2.24086 -2.64611,2.86067 0.83436,0.3099 1.26346,1.09659 0.33374,0.61981 0.33374,1.38265 0,0.16687 -0.0238,0.35758 0,0.35759 -0.0238,0.5483 l -2.479246,13.51664 h -4.195642 l 2.503082,-13.99342 z M 80.803582,142.98039 h 9.273321 l -0.667488,3.86189 h -5.149197 l -1.930948,10.79901 h 5.125357 l -0.715166,3.81422 h -5.101519 l -2.121659,11.8956 h 5.053841 l -0.691328,3.81422 H 74.605475 Z M 70.05225,157.99888 q 0.524455,0 0.929716,-0.33375 0.405261,-0.3099 0.476777,-0.81052 l 1.69256,-8.8919 v -0.14303 q 0,-0.4291 -0.286066,-0.71517 -0.286067,-0.26223 -0.691328,-0.26223 h -3.408958 l -2.073982,11.1566 z m -10.894365,19.16645 6.198107,-34.18494 h 8.987255 q 1.26346,0 2.145498,0.90587 0.905877,0.90588 0.905877,2.19318 0,0.16687 -0.07152,0.54829 l -2.193176,12.11015 q -0.238389,1.33498 -1.287299,2.21702 -1.048911,0.88203 -2.407727,0.88203 h -5.363746 l -2.789148,15.3284 z m -11.132753,-4.95849 v 0.1192 q 0,0.40526 0.262227,0.71516 0.309906,0.30991 0.715167,0.30991 h 2.193176 q 1.168105,0 1.454171,-1.19194 l 5.29223,-29.17878 h 4.052608 l -5.697491,31.10972 q -0.262227,1.31114 -1.311138,2.19318 -1.072749,0.88204 -2.455403,0.88204 H 46.78551 q -1.215782,0 -2.09782,-0.90588 -0.882039,-0.90588 -0.882039,-2.16934 v -0.59597 l 5.50678,-30.51375 h 3.957253 z M 37.440673,156.1156 q 3.933414,6.74641 4.267158,7.53309 0.619811,1.14426 0.619811,2.47924 0,0.66749 -0.143034,1.35882 l -1.215782,6.60336 q -0.286067,1.31114 -1.311138,2.19318 -1.072749,0.88204 -2.455404,0.88204 h -5.69749 q -1.263461,0 -2.12166,-0.90588 -0.83436,-0.88204 -0.83436,-2.16934 v -0.54829 l 1.501848,-8.67735 h 3.957253 l -1.287299,7.34237 v 0.1192 q 0,0.40526 0.286067,0.71516 0.286066,0.30991 0.691327,0.30991 h 2.193176 q 0.524455,0 0.953555,-0.33374 0.4291,-0.35759 0.548294,-0.8582 l 0.858199,-4.81546 q 0.04768,-0.21455 0.04768,-0.45293 0,-0.9774 -0.83436,-2.45541 -0.381422,-0.69133 -2.050143,-3.81422 -1.859432,-3.50431 -2.145499,-4.05261 -0.905877,-1.78791 -0.905877,-3.52815 0,-0.52445 0.07152,-1.04891 l 1.025071,-5.91204 q 0.262228,-1.33498 1.334977,-2.21702 1.04891,-0.88203 2.407726,-0.88203 h 5.721329 q 1.239622,0 2.145499,0.90587 0.929716,0.90588 0.929716,2.19318 0,0.35758 -0.04768,0.54829 l -1.501849,8.41513 h -4.00493 l 1.26346,-7.08015 q 0.04768,-0.0715 0.04768,-0.14303 0,-0.40526 -0.309906,-0.71517 -0.309905,-0.26223 -0.715166,-0.26223 h -2.193176 q -0.524455,0 -0.929716,0.33375 -0.405261,0.3099 -0.500616,0.78668 l -0.691328,3.79038 q -0.07152,0.4291 -0.07152,0.88204 0,1.7164 1.096588,3.48047 z m 215.272317,20.43851 1.24354,-3.06917 h 0.58208 v 3.75709 h -0.37042 v -3.22792 0 l -1.34937,3.22792 h -0.21167 l -1.34937,-3.22792 v 0 3.22792 h -0.37042 v -3.75709 h 0.58209 z m -3.70417,0.68792 h -0.37042 v -3.38667 h -1.24354 v -0.37042 h 2.91042 v 0.37042 h -1.29646 z m -2.91042,16.29833 h -1.56104 l 0.79375,-2.96333 c 0.47625,-1.87855 0.97896,-3.75709 1.61396,-5.63563 v 0 l -3.96875,8.59896 h -1.00542 l 0.58209,-8.59896 h -0.0529 c -0.37042,1.87854 -0.82021,3.75708 -1.34938,5.63563 l -0.79375,2.96333 h -1.56104 l 2.46063,-9.41917 h 2.54 l -0.3175,4.36563 c -0.0529,0.74083 -0.26459,1.87854 -0.42334,2.59291 v 0 c 0.3175,-0.92604 0.68792,-1.98437 0.92605,-2.59291 l 1.98437,-4.36563 h 2.48708 z m -11.87979,-8.06979 h -2.91042 l -0.635,2.40771 h 2.64584 l -0.37042,1.40229 h -2.64583 l -0.79375,2.91041 h 2.8575 l -0.37042,1.4023 h -4.47146 l 2.46063,-9.41917 h 4.47146 z m -10.63625,0 h -1.82562 l -2.09021,8.06979 h -1.56104 l 2.0902,-8.06979 h -1.87854 l 0.37042,-1.34938 h 5.31812 z m -10.66271,1.50812 h -1.50812 c 0.21166,-0.82021 0.37041,-1.66687 -0.47625,-1.66687 -0.52917,0 -0.92604,0.26458 -1.08479,0.87312 -0.21167,0.74084 0.15875,0.97896 0.58208,1.34938 0.42333,0.37041 1.19062,1.03187 1.50812,1.56104 0.37042,0.58208 0.42334,1.13771 0.21167,1.98437 -0.47625,1.77271 -1.77271,2.69875 -3.33375,2.69875 -1.93146,0 -2.30187,-1.19062 -1.82562,-2.8575 l 0.15875,-0.68791 h 1.61395 l -0.15875,0.58208 c -0.26458,0.92604 -0.21166,1.56104 0.58209,1.56104 0.68791,0 1.08479,-0.37041 1.29646,-1.08479 0.15875,-0.58208 0,-0.92604 -0.3175,-1.24354 -0.635,-0.74083 -1.50813,-1.24354 -1.93146,-2.19604 -0.15875,-0.42334 -0.15875,-0.92604 -0.0529,-1.45521 0.42333,-1.61396 1.45521,-2.48708 3.12208,-2.48708 2.43417,-0.0529 1.82563,2.11666 1.61396,3.06916 z m -13.33499,2.54 -1.03187,4.02167 h -1.56104 l 1.03187,-4.02167 -0.79375,-5.42396 h 1.71979 l 0.26459,2.48709 c 0.0529,0.47625 0.0529,0.92604 0,1.45521 v 0 c 0.3175,-0.74084 0.68791,-1.24355 0.97895,-1.77271 l 1.29646,-2.14313 h 1.71978 z m -8.81062,-2.54 h -1.50813 c 0.21167,-0.82021 0.37042,-1.66687 -0.47625,-1.66687 -0.52916,0 -0.92604,0.26458 -1.08479,0.87312 -0.21167,0.74084 0.15875,0.97896 0.58208,1.34938 0.42334,0.37041 1.19063,1.03187 1.50813,1.56104 0.42333,0.58208 0.42333,1.13771 0.21167,1.98437 -0.47625,1.77271 -1.77271,2.69875 -3.33375,2.69875 -1.93146,0 -2.30188,-1.19062 -1.82563,-2.8575 l 0.15875,-0.68791 h 1.56104 l -0.15875,0.58208 c -0.26458,0.92604 -0.21166,1.56104 0.58209,1.56104 0.68791,0 1.08479,-0.37041 1.24354,-1.08479 0.15875,-0.58208 0,-0.92604 -0.3175,-1.24354 -0.635,-0.74083 -1.56104,-1.24354 -1.93146,-2.19604 -0.15875,-0.42334 -0.15875,-0.92604 -0.0529,-1.45521 0.42334,-1.61396 1.45521,-2.48708 3.12209,-2.48708 2.61937,-0.0529 1.93145,2.11666 1.71979,3.06916 z m -17.33021,-1.50812 h -1.82563 l -2.0902,8.06979 h -1.61396 l 2.09021,-8.06979 h -1.87855 l 0.37042,-1.34938 h 5.31813 z m -13.12333,8.06979 h -1.66688 l -0.37042,-3.38667 c -0.10583,-1.08479 -0.15875,-2.30187 -0.15875,-3.75708 v 0 c -0.15875,0.79375 -0.3175,1.71979 -0.52916,2.69875 -0.21167,0.92604 -0.42334,1.87854 -0.635,2.64583 l -0.47625,1.77271 H 154.923 l 2.46062,-9.41917 h 1.61396 l 0.37042,3.43959 c 0.10583,1.08479 0.15875,2.24896 0.15875,3.75708 v 0 c 0.15875,-0.82021 0.37041,-1.77271 0.52916,-2.69875 0.21167,-0.87312 0.42334,-1.82562 0.635,-2.64583 l 0.47625,-1.82563 h 1.61396 z m -9.07521,-8.06979 h -2.8575 l -0.635,2.40771 h 2.64583 l -0.37042,1.40229 h -2.64583 l -0.79375,2.91041 h 2.8575 l -0.37041,1.4023 h -4.47146 l 2.46062,-9.41917 h 4.47146 z m -13.22917,8.06979 h -1.56104 l 0.79375,-2.96333 c 0.47625,-1.87855 0.97896,-3.75709 1.61396,-5.63563 v 0 l -3.96875,8.59896 h -0.97896 l 0.58208,-8.59896 h -0.0529 c -0.37042,1.87854 -0.82021,3.75708 -1.34938,5.63563 l -0.79375,2.96333 h -1.56104 l 2.46063,-9.41917 h 2.54 l -0.3175,4.36563 c -0.0529,0.74083 -0.26459,1.87854 -0.42334,2.59291 v 0 c 0.3175,-0.92604 0.68792,-1.98437 0.92604,-2.59291 l 1.98438,-4.36563 h 2.48708 z m -14.31396,0 h -1.66688 l -0.37041,-3.38667 c -0.10584,-1.08479 -0.15875,-2.30187 -0.15875,-3.75708 v 0 c -0.15875,0.79375 -0.3175,1.71979 -0.52917,2.69875 -0.21167,0.92604 -0.42333,1.87854 -0.635,2.64583 l -0.47625,1.77271 h -1.56104 l 2.46062,-9.41917 h 1.61396 l 0.3175,3.43959 c 0.10584,1.08479 0.15875,2.24896 0.15875,3.75708 v 0 c 0.15875,-0.82021 0.37042,-1.77271 0.52917,-2.69875 0.21167,-0.87312 0.42333,-1.82562 0.635,-2.64583 l 0.47625,-1.82563 h 1.61396 z m -12.59417,0 h -1.56104 l 2.46063,-9.41917 h 1.56104 z m -8.12271,0 h -1.71979 l 0.21167,-2.40771 h -1.878542 l -1.031875,2.40771 h -1.719792 l 4.471459,-9.41917 h 2.14312 z m -9.022287,-8.06979 h -1.825625 l -2.090209,8.06979 h -1.561041 l 2.090208,-8.06979 h -1.878542 l 0.370417,-1.34938 h 5.265208 z m -10.768542,0.87312 c -0.264583,1.03188 -0.79375,2.14313 -1.878542,2.30188 v 0 c 0.873125,0.15875 0.978959,0.82021 0.79375,1.71979 -0.105833,0.42333 -0.740833,2.69875 -0.423333,2.96333 l -0.05292,0.15875 h -1.772708 c -0.05292,-0.635 0.3175,-1.77271 0.47625,-2.40771 0.15875,-0.58208 0.370417,-1.34937 -0.15875,-1.56104 -0.42333,-0.15875 -0.873122,-0.10583 -1.296455,-0.10583 h -0.264584 l -1.031875,4.07458 h -1.561041 l 2.460625,-9.41916 h 3.01625 c 1.217083,0.0529 2.090208,0.55562 1.693333,2.27541 z m -11.218333,-0.87312 h -2.8575 l -0.635,2.40771 h 2.645833 l -0.370417,1.40229 h -2.645833 l -0.79375,2.91041 h 2.8575 l -0.370417,1.4023 h -4.471458 l 2.460625,-9.41917 h 4.471458 z m -10.080625,0 h -1.825625 l -2.090209,8.06979 h -1.561041 l 2.090208,-8.06979 h -1.878542 l 0.370417,-1.34938 h 5.318125 z m -12.938125,8.06979 h -1.666875 l -0.370417,-3.38667 c -0.105833,-1.08479 -0.15875,-2.30187 -0.15875,-3.75708 v 0 c -0.15875,0.79375 -0.3175,1.71979 -0.529167,2.69875 -0.211666,0.92604 -0.423333,1.87854 -0.635,2.64583 l -0.47625,1.77271 h -1.561041 l 2.460625,-9.41917 h 1.666875 l 0.3175,3.43959 c 0.105833,1.08479 0.15875,2.24896 0.15875,3.75708 v 0 c 0.15875,-0.82021 0.370416,-1.77271 0.529166,-2.69875 0.211667,-0.87312 0.423334,-1.82562 0.635,-2.64583 l 0.47625,-1.82563 h 1.561042 z m -10.186459,-8.06979 h -2.883958 l -0.635,2.40771 h 2.645833 l -0.370416,1.40229 h -2.645835 l -0.79375,2.91041 h 2.910418 l -0.370417,1.4023 h -4.418542 l 2.460625,-9.41917 h 4.471459 z m -10.160001,-4.445 v 15.58396 H 251.25778 v -15.58396 z m 52.122918,4.445 h -1.190625 l -0.687917,2.59291 h 1.243542 c 0.529167,-0.0529 1.031875,-0.42333 1.296458,-1.34937 0.291042,-1.03188 -0.02646,-1.24354 -0.661458,-1.24354 z m 20.875624,4.25979 0.3175,-2.69875 c 0.0529,-0.42333 0.15875,-0.87313 0.21167,-1.29646 0.0529,-0.21167 0.10583,-0.74083 0.10583,-0.87312 v 0 c -0.0529,0.21166 -0.21167,0.68791 -0.3175,0.87312 -0.15875,0.42333 -0.3175,0.87313 -0.52917,1.29646 l -1.19062,2.69875 z"
       style="font-style:normal;font-variant:normal;font-weight:normal;font-stretch:normal;font-family:snes;-inkscape-font-specification:snes;fill:#e3000b;fill-opacity:1;stroke-width:1.22055018"
       id="path5360" /></g><text
     xml:space="preserve"
     style="font-style:normal;font-weight:normal;font-size:12.37645912px;line-height:1.25;font-family:sans-serif;letter-spacing:0px;word-spacing:0px;fill:#000000;fill-opacity:1;stroke:#000000;stroke-width:0.14696187;stroke-miterlimit:4;stroke-dasharray:none;stroke-opacity:1;"
     x="99.777573"
     y="-127.95302"
     id="text1617"
     transform="scale(1.3456868,-0.74311497)"><tspan
       sodipodi:role="line"
       id="tspan1615"
       x="99.777573"
       y="-127.95302"
       style="font-style:italic;font-variant:normal;font-weight:normal;font-stretch:normal;font-size:4.12548637px;line-height:4.25;font-family:snes;-inkscape-font-specification:'snes, Italic';font-variant-ligatures:normal;font-variant-caps:normal;font-variant-numeric:normal;font-feature-settings:normal;text-align:start;letter-spacing:0.77043444px;writing-mode:lr-tb;text-anchor:start;fill:#000000;stroke:#000000;stroke-width:0.14696187;stroke-miterlimit:4;stroke-dasharray:none;stroke-opacity:1;">Entertainment system</tspan></text>
</g></g></g></g></g></svg>