<?xml version="1.0" encoding="UTF-8" standalone="no"?>
<!-- Created with Inkscape (http://www.inkscape.org/) -->

<svg
   xmlns:dc="http://purl.org/dc/elements/1.1/"
   xmlns:cc="http://creativecommons.org/ns#"
   xmlns:rdf="http://www.w3.org/1999/02/22-rdf-syntax-ns#"
   xmlns:svg="http://www.w3.org/2000/svg"
   xmlns="http://www.w3.org/2000/svg"
   xmlns:sodipodi="http://sodipodi.sourceforge.net/DTD/sodipodi-0.dtd"
   xmlns:inkscape="http://www.inkscape.org/namespaces/inkscape"
   width="297mm"
   height="210mm"
   viewBox="0 0 297 210"
   version="1.1"
   id="svg8"
   inkscape:version="0.92.3 (2405546, 2018-03-11)"
   sodipodi:docname="VentilaStation2.svg">
  <defs
     id="defs2" />
  <sodipodi:namedview
     id="base"
     pagecolor="#ffffff"
     bordercolor="#666666"
     borderopacity="1.0"
     inkscape:pageopacity="0.0"
     inkscape:pageshadow="2"
     inkscape:zoom="0.70710678"
     inkscape:cx="371.46883"
     inkscape:cy="340.09858"
     inkscape:document-units="mm"
     inkscape:current-layer="text897"
     showgrid="false"
     showguides="true"
     inkscape:guide-bbox="true"
     inkscape:measure-start="0,0"
     inkscape:measure-end="0,0"
     inkscape:window-width="1366"
     inkscape:window-height="713"
     inkscape:window-x="0"
     inkscape:window-y="27"
     inkscape:window-maximized="1" />
  <metadata
     id="metadata5">
    <rdf:RDF>
      <cc:Work
         rdf:about="">
        <dc:format>image/svg+xml</dc:format>
        <dc:type
           rdf:resource="http://purl.org/dc/dcmitype/StillImage" />
        <dc:title />
      </cc:Work>
    </rdf:RDF>
  </metadata>
  <g
     inkscape:label="Layer 1"
     inkscape:groupmode="layer"
     id="layer1"
     transform="translate(0,-87)">
    <g
       aria-label="VentilaStation 2"
       style="font-style:normal;font-weight:normal;font-size:28.96319008px;line-height:1.25;font-family:sans-serif;letter-spacing:0px;word-spacing:0px;fill:#000000;fill-opacity:1;stroke:none;stroke-width:0.72407973"
       id="text880">
      <path
         d="m 67.742703,239.54934 -3.27284,17.92822 -2.867356,-17.92822 h -3.707288 l 3.823141,20.3032 h 5.242337 l 4.141736,-20.3032 z"
         style="font-style:normal;font-variant:normal;font-weight:normal;font-stretch:normal;font-family:'FONTSPRING DEMO - Zrnic Sb';-inkscape-font-specification:'FONTSPRING DEMO - Zrnic Sb';stroke-width:0.72407973"
         id="path824" />
      <path
         d="m 79.599057,253.27789 c 3.562472,0 4.460331,-1.3323 4.460331,-3.79417 v -1.91157 c 0,-2.46187 -0.897859,-3.79418 -4.460331,-3.79418 h -3.388694 c -3.562472,0 -4.489294,1.33231 -4.489294,4.92374 v 6.22709 c 0,3.59143 0.926822,4.92374 4.489294,4.92374 h 6.661534 v -2.08535 h -5.35819 c -1.853644,0 -2.172239,-0.3186 -2.172239,-2.69358 v -6.51672 c 0,-2.37498 0.318595,-2.66461 2.172239,-2.66461 h 0.782006 c 1.824681,0 2.143276,0.28963 2.143276,1.91157 v 1.6509 c 0,1.4192 -0.318595,1.79572 -2.143276,1.79572 h -1.506086 v 2.02742 z"
         style="font-style:normal;font-variant:normal;font-weight:normal;font-stretch:normal;font-family:'FONTSPRING DEMO - Zrnic Sb';-inkscape-font-specification:'FONTSPRING DEMO - Zrnic Sb';stroke-width:0.72407973"
         id="path826" />
      <path
         d="m 98.863651,259.85254 v -11.15083 c 0,-3.59143 -0.926822,-4.92374 -4.489295,-4.92374 h -8.109693 v 16.07457 h 3.620399 v -13.96026 h 3.185951 c 1.824681,0 2.172239,0.34756 2.172239,2.43291 v 11.52735 z"
         style="font-style:normal;font-variant:normal;font-weight:normal;font-stretch:normal;font-family:'FONTSPRING DEMO - Zrnic Sb';-inkscape-font-specification:'FONTSPRING DEMO - Zrnic Sb';stroke-width:0.72407973"
         id="path828" />
      <path
         d="m 108.80526,243.77797 h -3.64936 v -4.22863 h -3.6204 v 16.42213 c 0,2.2012 0.92683,3.88107 3.76522,3.88107 h 2.66461 v -2.08535 h -1.18749 c -1.30334,0 -1.62194,-0.23171 -1.62194,-2.05639 v -9.81852 h 3.64936 z"
         style="font-style:normal;font-variant:normal;font-weight:normal;font-stretch:normal;font-family:'FONTSPRING DEMO - Zrnic Sb';-inkscape-font-specification:'FONTSPRING DEMO - Zrnic Sb';stroke-width:0.72407973"
         id="path830" />
      <path
         d="m 114.26754,243.77797 h -3.62039 v 16.07457 h 3.62039 z m 0,-4.83685 h -3.62039 v 2.78046 h 3.62039 z"
         style="font-style:normal;font-variant:normal;font-weight:normal;font-stretch:normal;font-family:'FONTSPRING DEMO - Zrnic Sb';-inkscape-font-specification:'FONTSPRING DEMO - Zrnic Sb';stroke-width:0.72407973"
         id="path832" />
      <path
         d="m 120.82816,238.97008 h -3.6204 v 20.88246 h 3.6204 z"
         style="font-style:normal;font-variant:normal;font-weight:normal;font-stretch:normal;font-family:'FONTSPRING DEMO - Zrnic Sb';-inkscape-font-specification:'FONTSPRING DEMO - Zrnic Sb';stroke-width:0.72407973"
         id="path834" />
      <path
         d="m 127.71009,250.06298 c -3.56248,0 -4.4893,1.33231 -4.4893,3.79418 v 2.2012 c 0,2.46187 0.92682,3.79418 4.4893,3.79418 h 7.44354 v -11.15083 c 0,-3.59143 -0.92683,-4.92374 -4.4893,-4.92374 h -5.32922 v 2.11431 h 4.02588 c 1.85364,0 2.17224,0.28963 2.17224,2.66461 v 9.2103 h -2.5198 c -1.85364,0 -2.17224,-0.3186 -2.17224,-1.91157 v -1.94053 c 0,-1.4192 0.3186,-1.82469 2.17224,-1.82469 h 1.07164 v -2.02742 z"
         style="font-style:normal;font-variant:normal;font-weight:normal;font-stretch:normal;font-family:'FONTSPRING DEMO - Zrnic Sb';-inkscape-font-specification:'FONTSPRING DEMO - Zrnic Sb';stroke-width:0.72407973"
         id="path836" />
      <path
         d="m 149.14963,253.59649 c 0,-4.74996 -1.39023,-5.76367 -4.60515,-5.76367 h -1.82468 c -1.9695,0 -2.14327,-0.55031 -2.14327,-3.01218 0,-2.72254 0.72408,-3.15698 2.02742,-3.15698 h 4.89478 v -2.11432 h -5.79264 c -3.35973,0 -4.57618,2.14328 -4.57618,5.76368 0,4.25759 1.04267,5.73471 4.02588,5.73471 h 2.02742 c 2.23017,0 2.5198,0.46341 2.5198,3.09906 0,3.24388 -0.78201,3.6204 -2.11431,3.6204 h -5.93746 v 2.08535 h 6.66154 c 3.50454,0 4.83685,-1.9695 4.83685,-6.25605 z"
         style="font-style:normal;font-variant:normal;font-weight:normal;font-stretch:normal;font-family:'FONTSPRING DEMO - Zrnic Sb';-inkscape-font-specification:'FONTSPRING DEMO - Zrnic Sb';stroke-width:0.72407973"
         id="path838" />
      <path
         d="m 158.52918,243.77797 h -3.64936 v -4.22863 h -3.6204 v 16.42213 c 0,2.2012 0.92683,3.88107 3.76522,3.88107 h 2.66461 v -2.08535 h -1.18749 c -1.30334,0 -1.62194,-0.23171 -1.62194,-2.05639 v -9.81852 h 3.64936 z"
         style="font-style:normal;font-variant:normal;font-weight:normal;font-stretch:normal;font-family:'FONTSPRING DEMO - Zrnic Sb';-inkscape-font-specification:'FONTSPRING DEMO - Zrnic Sb';stroke-width:0.72407973"
         id="path840" />
      <path
         d="m 163.8575,250.06298 c -3.56247,0 -4.48929,1.33231 -4.48929,3.79418 v 2.2012 c 0,2.46187 0.92682,3.79418 4.48929,3.79418 h 7.44354 v -11.15083 c 0,-3.59143 -0.92682,-4.92374 -4.48929,-4.92374 h -5.32923 v 2.11431 h 4.02588 c 1.85365,0 2.17224,0.28963 2.17224,2.66461 v 9.2103 h -2.51979 c -1.85365,0 -2.17224,-0.3186 -2.17224,-1.91157 v -1.94053 c 0,-1.4192 0.31859,-1.82469 2.17224,-1.82469 h 1.07163 v -2.02742 z"
         style="font-style:normal;font-variant:normal;font-weight:normal;font-stretch:normal;font-family:'FONTSPRING DEMO - Zrnic Sb';-inkscape-font-specification:'FONTSPRING DEMO - Zrnic Sb';stroke-width:0.72407973"
         id="path842" />
      <path
         d="m 181.21324,243.77797 h -3.64936 v -4.22863 h -3.6204 v 16.42213 c 0,2.2012 0.92682,3.88107 3.76522,3.88107 h 2.66461 v -2.08535 h -1.18749 c -1.30334,0 -1.62194,-0.23171 -1.62194,-2.05639 v -9.81852 h 3.64936 z"
         style="font-style:normal;font-variant:normal;font-weight:normal;font-stretch:normal;font-family:'FONTSPRING DEMO - Zrnic Sb';-inkscape-font-specification:'FONTSPRING DEMO - Zrnic Sb';stroke-width:0.72407973"
         id="path844" />
      <path
         d="m 186.67552,243.77797 h -3.6204 v 16.07457 h 3.6204 z m 0,-4.83685 h -3.6204 v 2.78046 h 3.6204 z"
         style="font-style:normal;font-variant:normal;font-weight:normal;font-stretch:normal;font-family:'FONTSPRING DEMO - Zrnic Sb';-inkscape-font-specification:'FONTSPRING DEMO - Zrnic Sb';stroke-width:0.72407973"
         id="path846" />
      <path
         d="m 193.84436,243.77797 c -3.56248,0 -4.46033,1.33231 -4.46033,4.92374 v 6.22709 c 0,3.59143 0.89785,4.92374 4.46033,4.92374 h 3.99692 c 3.56247,0 4.48929,-1.33231 4.48929,-4.92374 v -6.22709 c 0,-3.59143 -0.92682,-4.92374 -4.48929,-4.92374 z m 2.69357,2.11431 c 1.85365,0 2.17224,0.28963 2.17224,2.66461 v 6.51672 c 0,2.37498 -0.31859,2.69358 -2.17224,2.69358 h -1.39023 c -1.82468,0 -2.14328,-0.3186 -2.14328,-2.69358 v -6.51672 c 0,-2.37498 0.3186,-2.66461 2.14328,-2.66461 z"
         style="font-style:normal;font-variant:normal;font-weight:normal;font-stretch:normal;font-family:'FONTSPRING DEMO - Zrnic Sb';-inkscape-font-specification:'FONTSPRING DEMO - Zrnic Sb';stroke-width:0.72407973"
         id="path848" />
      <path
         d="m 217.60142,259.85254 v -11.15083 c 0,-3.59143 -0.92682,-4.92374 -4.48929,-4.92374 h -8.10969 v 16.07457 h 3.62039 v -13.96026 h 3.18595 c 1.82469,0 2.17224,0.34756 2.17224,2.43291 v 11.52735 z"
         style="font-style:normal;font-variant:normal;font-weight:normal;font-stretch:normal;font-family:'FONTSPRING DEMO - Zrnic Sb';-inkscape-font-specification:'FONTSPRING DEMO - Zrnic Sb';stroke-width:0.72407973"
         id="path850" />
      <path
         d="m 233.39903,250.49743 h 1.6509 c 3.01217,0 4.05485,-0.98475 4.05485,-5.70575 0,-3.91003 -1.21646,-5.24234 -4.57619,-5.24234 h -6.6036 v 2.11432 h 5.70575 c 1.30334,0 2.02742,0.60822 2.02742,3.27284 0,2.31705 -0.20274,3.35973 -2.14328,3.35973 h -1.24541 c -4.19967,0 -5.18442,1.50608 -5.18442,5.79263 v 5.76368 h 11.64321 v -2.08535 h -7.99384 v -3.50455 c 0,-3.01217 0.31859,-3.76521 2.66461,-3.76521 z"
         style="font-style:normal;font-variant:normal;font-weight:normal;font-stretch:normal;font-family:'FONTSPRING DEMO - Zrnic Sb';-inkscape-font-specification:'FONTSPRING DEMO - Zrnic Sb';stroke-width:0.72407973"
         id="path852" />
    </g>
    <g
       id="g4612"
       transform="matrix(3.6814181,0,0,3.7186229,-218.62068,-309.24675)">
      <g
         transform="matrix(0.04814442,0,0,0.04814442,85.030235,118.23788)"
         id="g876"
         style="overflow:visible">
        <g
           id="g3"
           transform="translate(-61.68556,-312.8684)">
          <path
             style="clip-rule:evenodd;fill:#f3c202;fill-opacity:1;fill-rule:evenodd"
             d="m 226.78568,742.76757 -54.22512,18.23778 c -35.06323,12.15852 -64.97567,-16.35908 -32.72249,-28.05407 l 26.17539,-9.34411 -98.632455,-31.33052 C 36.994899,702.56663 8.4787729,724.53999 10.3531,755.3983 c 1.869981,31.3204 73.38699,38.80466 128.55071,47.68813 51.4165,8.4113 98.16172,3.73706 140.70488,-11.2242 l 42.21589,-13.96898 z"
             id="path4622" />
          <path
             style="clip-rule:evenodd;fill:#f3c202;fill-opacity:1;fill-rule:evenodd"
             d="m 395.53446,863.39514 100.50242,-35.0676 -101.43667,-32.25463 v 64.98007 z"
             id="path9" />
          <path
             inkscape:connector-curvature="0"
             id="path887"
             d="m 662.91715,769.42531 1.8685,-0.47074 c 43.94098,-15.42334 62.63936,-36.93754 57.96798,-57.03368 -7.4799,-33.65968 -61.23717,-51.89741 -143.97839,-57.97669 -59.36432,-4.20494 -117.79432,8.88207 -174.8237,28.51615 l -9.3499,3.27646 102.37241,31.79113 59.83219,-20.10628 c 62.6393,-11.68485 87.8862,8.88347 27.58184,28.05407 l -29.91827,10.2798 z"
             style="clip-rule:evenodd;fill:#326db3;fill-opacity:1;fill-rule:evenodd" />
          <path
             sodipodi:nodetypes="ccccccccccccccccccccc"
             inkscape:connector-curvature="0"
             d="m 496.03688,828.32754 166.88027,-58.90223 -108.4502,-33.66978 -159.86674,54.70022 v 5.61716 z m -174.2123,-50.43429 -42.21446,-52.88976 m 114.99009,27.59201 v -66.85869 m 0,66.85869 102.37241,-35.06756 -102.37241,-31.79113 -114.99009,39.26668 -52.823,17.76557 95.03746,35.12419 M 166.01492,723.60717 328.24235,665.51841 234.26272,636.17869 67.38246,692.27665 Z"
             id="path13"
             style="clip-rule:evenodd;fill:#00aa9e;fill-opacity:1;fill-rule:evenodd" />
          <path
             style="clip-rule:evenodd;fill:#326db3;fill-opacity:1;fill-rule:evenodd;stroke-width:0.6732589"
             d="m 534.76562,357.23242 -62.33007,25.70117 62.95507,19.85352 67.32618,-23.72852 z"
             transform="matrix(1.4927992,0,0,1.4778637,-470.98937,70.254818)"
             id="path4624"
             inkscape:connector-curvature="0"
             sodipodi:nodetypes="ccccc" />
        </g>
      </g>
      <g
         inkscape:transform-center-y="-14.019415"
         inkscape:transform-center-x="2.9585239"
         transform="matrix(1.2127835,0.39405726,0,1.2127835,67.387554,-59.851853)"
         id="text897"
         style="font-style:normal;font-weight:normal;font-size:28.96319008px;line-height:1.25;font-family:sans-serif;letter-spacing:0px;word-spacing:0px;fill:#ff0000;fill-opacity:1;stroke:none;stroke-width:0.12368242;stroke-miterlimit:4;stroke-dasharray:none;stroke-opacity:1"
         aria-label="V">
        <path
           inkscape:connector-curvature="0"
           id="path899"
           style="font-style:normal;font-variant:normal;font-weight:normal;font-stretch:normal;font-family:'FONTSPRING DEMO - Zrnic Sb';-inkscape-font-specification:'FONTSPRING DEMO - Zrnic Sb';fill:#ff0000;stroke:none;stroke-width:0.12368242;stroke-miterlimit:4;stroke-dasharray:none;stroke-opacity:1"
           d="m 28.545134,139.37432 -3.27284,17.92822 -2.867356,-17.92822 H 18.69765 l 3.823141,20.3032 h 5.242337 l 4.141736,-20.3032 z" />
      </g>
    </g>
  </g>
</svg>
